<svg xmlns="http://www.w3.org/2000/svg" width="1em" height="1em" viewBox="0 0 48 38">
    <path fill="#DECCBA" d="M44.838 0c-.575 0-1.437.142-2.012.285-8.91 2.419-15.52 14.371-15.52 24.474 0 6.972 4.31 11.241 9.772 11.241 5.46 0 9.916-4.411 9.916-9.818 0-4.838-3.45-8.68-8.048-9.534.719-4.41 2.587-8.11 7.33-10.814C47.28 5.264 48 4.411 48 3.13 48 1.423 46.563 0 44.838 0ZM0 24.759C0 31.73 4.311 36 9.772 36s9.917-4.411 9.917-9.818c0-4.838-3.45-8.68-8.048-9.534.718-4.41 2.586-8.11 7.33-10.814 1.005-.57 1.724-1.423 1.724-2.704 0-1.707-1.438-3.13-3.162-3.13-.575 0-1.437.142-2.012.285C6.611 2.704 0 14.656 0 24.759Z" />
</svg>