<svg width="128" height="80" viewBox="0 0 128 80" fill="none" xmlns="http://www.w3.org/2000/svg">
    <path fill-rule="evenodd" clip-rule="evenodd" d="M109.37 47.7103C102.863 66.5045 85.0076 80 64 80C42.9924 80 25.1368 66.5045 18.6299 47.7103C15.7389 39.36 8.83655 32 0 32H128C119.163 32 112.261 39.36 109.37 47.7103Z" fill="#F1F5F1"/>
    <circle cx="63" cy="32" r="32" fill="#26221E"/>
    <path d="M66.9375 35.4688C66.8125 35.1875 66.5312 35 66.25 35H63.75V29H66.25C66.5312 29 66.8125 28.8438 66.9062 28.5625C67 28.2812 66.9688 27.9688 66.75 27.75L63.5 24.25C63.4062 24.0938 63.1875 24.0312 63 24.0312C62.7812 24.0312 62.5625 24.0938 62.4375 24.25L59.1875 27.75C58.9688 27.9688 58.9375 28.2812 59.0312 28.5625C59.1562 28.8438 59.4375 29 59.75 29H62.25V35H59.75C59.4375 35 59.1562 35.1875 59.0625 35.4688C58.9375 35.75 58.9688 36.0625 59.1875 36.2812L62.4062 39.7812C62.5625 39.9375 62.75 40 62.9688 40C63.1562 40 63.375 39.9375 63.5 39.7812L66.75 36.2812C67 36.0625 67.0312 35.75 66.9375 35.4688Z" fill="white"/>
</svg>
