<svg width="140" height="112" viewBox="0 0 140 112" fill="none" xmlns="http://www.w3.org/2000/svg">
    <g clip-path="url(#clip0_978_20173)">
        <g clip-path="url(#clip1_978_20173)">
            <path d="M74.5647 64.6644C71.492 77.6347 65.0179 88.4695 57.072 95.5108C49.1242 102.554 39.7626 105.76 30.8469 103.648C21.9312 101.536 15.0031 94.4703 11.0597 84.6102C7.11719 74.7526 6.19201 62.1649 9.26473 49.1946C12.3375 36.2243 18.8115 25.3894 26.7574 18.3482C34.7052 11.3053 44.0668 8.09893 52.9825 10.2111C61.8982 12.3233 68.8263 19.3887 72.7698 29.2487C76.7122 39.1064 77.6374 51.6941 74.5647 64.6644Z" stroke="#DECCBA" stroke-width="1.5"/>
            <path d="M70.7516 62.9732C67.7299 75.7282 61.1576 86.3365 53.0096 93.1861C44.8616 100.036 35.1823 103.098 25.8818 100.894C16.5813 98.6911 9.30453 91.612 5.09541 81.835C0.886301 72.058 -0.228192 59.6286 2.79352 46.8737C5.81522 34.1187 12.3875 23.5103 20.5355 16.6608C28.6835 9.81126 38.3628 6.74915 47.6633 8.95248C56.9638 11.1558 64.2405 18.2349 68.4497 28.0119C72.6588 37.7889 73.7733 50.2183 70.7516 62.9732Z" fill="currentColor" stroke="#362617" stroke-width="1.5"/>
            <path d="M35.4626 44.6674L35.3211 45.733C32.6307 45.7293 30.9087 47.3629 30.6349 49.4245C30.3242 51.7642 31.8488 53.3339 33.696 54.1921L35.9504 55.2459C37.3231 55.8997 38.3806 56.8652 38.1807 58.3709C37.9499 60.1083 36.4516 61.0879 34.0987 60.7754C32.5301 60.5671 31.3288 59.6532 30.6171 58.1443C30.4584 57.7932 30.2366 57.5752 29.8556 57.5246C29.3178 57.4531 28.907 57.7993 28.8331 58.3553C28.8116 58.5174 28.8511 58.7349 28.903 58.8596C29.4781 60.539 30.9825 61.9174 33.0582 62.4288L32.8613 63.9114C32.8059 64.3284 33.0928 64.7436 33.5186 64.8002C33.9219 64.8537 34.3073 64.5277 34.3627 64.1108L34.5565 62.6514C37.6889 62.7609 39.7259 60.8156 40.0182 58.6149C40.3812 55.8815 38.4154 54.371 36.7445 53.5598L34.4289 52.4508C33.1204 51.8291 32.3256 50.9456 32.4948 49.6715C32.6733 48.328 33.9251 47.3156 36.0763 47.6013C37.5777 47.8007 38.5132 48.6557 39.0158 49.3353C39.2865 49.7013 39.4697 49.8671 39.761 49.9058C40.2988 49.9772 40.6903 49.6049 40.758 49.0952C40.7887 48.8636 40.7075 48.6171 40.6139 48.4632C40.0647 47.4473 38.827 46.2929 36.8286 45.886L36.964 44.8668C37.0194 44.4498 36.7325 44.0345 36.3291 43.981C35.9033 43.9244 35.518 44.2504 35.4626 44.6674Z" fill="#362617"/>
            <path d="M127.735 64.8955C129.732 79.0028 122.486 91.3448 111.983 92.8315C101.48 94.3183 91.0945 84.4721 89.0975 70.3648C87.1006 56.2576 94.3456 43.9156 104.849 42.4288C115.352 40.9421 125.738 50.7883 127.735 64.8955Z" stroke="#DECCBA" stroke-width="1.5"/>
            <path d="M135.431 62.972C137.506 77.6269 129.334 90.6489 117.502 92.3239C105.669 93.9989 94.2044 83.7565 92.1299 69.1016C90.0554 54.4467 98.2268 41.4247 110.059 39.7497C121.892 38.0747 133.357 48.3171 135.431 62.972Z" fill="currentColor" stroke="#362617" stroke-width="1.5"/>
            <path d="M109.556 66.4823L110.199 66.3707L110.462 67.8903L109.819 68.0018C109.449 68.066 109.172 68.4352 109.236 68.8053C109.304 69.1949 109.689 69.4492 110.059 69.385L110.702 69.2734C111.218 72.1338 113.7 73.8304 116.642 73.3201C118.824 72.9416 120.216 71.5963 120.744 69.8993C120.782 69.7723 120.782 69.652 120.761 69.5351C120.687 69.1065 120.275 68.8167 119.847 68.891C119.516 68.9485 119.309 69.1449 119.2 69.4447C118.753 70.6861 117.722 71.5674 116.378 71.8006C114.469 72.1318 112.677 71.0579 112.3 68.9963L115.943 68.3643C116.313 68.3001 116.59 67.9309 116.522 67.5413C116.458 67.1712 116.073 66.9169 115.703 66.9811L112.06 67.6131L111.796 66.0936L116.413 65.2926C116.783 65.2284 117.06 64.8592 116.993 64.4696C116.929 64.0995 116.543 63.8452 116.173 63.9094L111.556 64.7104C111.217 62.642 112.543 61.0274 114.452 60.6962C115.757 60.4698 117.011 60.8743 117.824 61.8571C118.001 62.0672 118.226 62.2088 118.596 62.1446C119.044 62.0668 119.315 61.6587 119.237 61.2106C119.213 61.0743 119.151 60.9447 119.072 60.8379C117.993 59.4798 116.273 58.8151 114.188 59.1767C111.246 59.687 109.481 62.1204 109.959 64.9876L109.316 65.0991C108.946 65.1633 108.668 65.5325 108.733 65.9026C108.8 66.2922 109.186 66.5465 109.556 66.4823Z" fill="#362617"/>
        </g>
    </g>
    <defs>
        <clipPath id="clip0_978_20173">
            <rect width="140" height="112" fill="currentColor"/>
        </clipPath>
        <clipPath id="clip1_978_20173">
            <rect width="163" height="112" fill="currentColor" transform="translate(-23)"/>
        </clipPath>
    </defs>
</svg>
