<svg width="21" height="20" viewBox="0 0 21 20" fill="none" xmlns="http://www.w3.org/2000/svg">
    <path d="M5.5 7.5V5C5.5 2.26562 7.72656 0 10.5 0C13.2344 0 15.5 2.26562 15.5 5V7.5H16.125C17.8438 7.5 19.25 8.90625 19.25 10.625V16.875C19.25 18.6328 17.8438 20 16.125 20H4.875C3.11719 20 1.75 18.6328 1.75 16.875V10.625C1.75 8.90625 3.11719 7.5 4.875 7.5H5.5ZM6.75 7.5H14.25V5C14.25 2.92969 12.5703 1.25 10.5 1.25C8.39062 1.25 6.75 2.92969 6.75 5V7.5ZM3 16.875C3 17.9297 3.82031 18.75 4.875 18.75H16.125C17.1406 18.75 18 17.9297 18 16.875V10.625C18 9.60938 17.1406 8.75 16.125 8.75H4.875C3.82031 8.75 3 9.60938 3 10.625V16.875Z" fill="currentColor"/>
</svg>
