<svg width="48" height="48" viewBox="0 0 48 48" fill="none" xmlns="http://www.w3.org/2000/svg">
    <path d="M27 12H20.9062C17.625 12 15 14.7188 15 18V18.9375C15 19.4062 15.2812 19.6875 15.75 19.6875C16.125 19.6875 16.5 19.4062 16.5 18.9375V18C16.5 15.5625 18.4688 13.5 20.9062 13.5H27C29.4375 13.5 31.5 15.5625 31.5 18C31.5 19.5938 30.5625 21.0938 29.1562 21.8438L22.9688 24.9375C22.125 25.4062 21.5625 26.3438 21.5625 27.375V29.25C21.5625 29.7188 21.8438 30 22.3125 30C22.6875 30 23.0625 29.7188 23.0625 29.25V27.375C23.0625 26.9062 23.3438 26.5312 23.7188 26.25L29.9062 23.1562C31.7812 22.125 33 20.1562 33 18C33 14.7188 30.2812 12 27 12ZM22.5 33C21.6562 33 21 33.75 21 34.5C21 35.3438 21.6562 36 22.5 36C23.25 36 24 35.3438 24 34.5C24 33.75 23.25 33 22.5 33ZM24 0C10.6875 0 0 10.7812 0 24C0 37.3125 10.6875 48 24 48C37.2188 48 48 37.3125 48 24C48 10.7812 37.2188 0 24 0ZM24 46.5C11.5312 46.5 1.5 36.4688 1.5 24C1.5 11.625 11.5312 1.5 24 1.5C36.375 1.5 46.5 11.625 46.5 24C46.5 36.4688 36.375 46.5 24 46.5Z" fill="currentColor"/>
</svg>
