<svg width="20" height="16" viewBox="0 0 20 16" fill="none" xmlns="http://www.w3.org/2000/svg">
    <path d="M19.9688 5.34375C19.9688 4.84375 19.7188 4.34375 19.2812 4L15.0625 0.65625C14.5625 0.25 13.9062 0 13.2188 0H12.4688C12.0625 0 11.75 0.34375 11.75 0.75C11.75 1.71875 10.9375 2.5 10 2.5C9.03125 2.5 8.25 1.71875 8.25 0.75C8.25 0.34375 7.90625 0 7.5 0H6.75C6.0625 0 5.40625 0.25 4.875 0.65625L0.65625 4C0.21875 4.34375 0 4.84375 0 5.34375C0 5.75 0.125 6.125 0.375 6.4375L1.9375 8.375C2.28125 8.78125 2.78125 9 3.3125 9C3.6875 9 4.0625 8.875 4.375 8.625L5 8.15625V13.75C5 15 6 16 7.25 16H12.7188C13.9375 16 14.9688 15 14.9688 13.75V8.15625L15.5625 8.625C15.875 8.90625 16.25 9.03125 16.6562 9.03125C17.1562 9.03125 17.6562 8.78125 18 8.375L19.5625 6.4375C19.8438 6.125 19.9688 5.75 19.9688 5.34375ZM18.5 5.34375C18.5 5.375 18.4688 5.4375 18.4375 5.46875L16.875 7.40625C16.8438 7.40625 16.7812 7.5 16.6562 7.5C16.625 7.5 16.5625 7.46875 16.5 7.4375L14.2812 5.6875C14.1875 5.59375 14.0938 5.5625 14 5.5625C13.7188 5.5625 13.4688 5.78125 13.4688 6.0625V13.75C13.4688 14.1875 13.1562 14.5 12.7188 14.5H7.25C6.8125 14.5 6.5 14.1875 6.5 13.75V6.09375C6.5 5.8125 6.25 5.59375 5.96875 5.59375C5.875 5.59375 5.78125 5.625 5.6875 5.71875L3.46875 7.46875C3.40625 7.5 3.34375 7.5 3.3125 7.5C3.21875 7.5 3.125 7.4375 3.09375 7.40625L1.53125 5.5C1.5 5.46875 1.46875 5.40625 1.46875 5.34375C1.46875 5.28125 1.5 5.21875 1.5625 5.15625L5.75 1.84375C6.0625 1.625 6.40625 1.5 6.75 1.5H6.8125C7.15625 2.9375 8.4375 4 10 4C11.5312 4 12.8125 2.9375 13.1562 1.5H13.2188C13.5625 1.5 13.9062 1.625 14.1875 1.84375L18.375 5.15625C18.4375 5.21875 18.5 5.28125 18.5 5.34375Z" fill="#02051F"/>
</svg>
