<svg width="18" height="16" viewBox="0 0 18 16" fill="none" xmlns="http://www.w3.org/2000/svg">
    <path d="M6.125 3.0625C5.75 2.9375 5.53125 2.5 5.6875 2.125C6.09375 0.90625 7.28125 0 8.65625 0C10 0 11.1875 0.90625 11.625 2.125C11.75 2.5 11.5312 2.9375 11.1562 3.0625C10.75 3.21875 10.3438 3 10.1875 2.625C9.96875 1.96875 9.375 1.5 8.65625 1.5C7.9375 1.5 7.3125 1.96875 7.09375 2.625C6.9375 3 6.53125 3.21875 6.125 3.0625ZM12.5 8.25C12.5 7.84375 12.8125 7.5 13.25 7.5C13.6562 7.5 14 7.84375 14 8.25C14 8.6875 13.6562 9 13.25 9C12.8125 9 12.5 8.6875 12.5 8.25ZM7 4H11.75C12.3125 3.40625 13.0938 3 14 3H14.5312C15 3 15.375 3.46875 15.25 3.9375L15 5C15.6562 5.53125 16.2188 6.21875 16.5625 7H17C17.5312 7 18 7.46875 18 8V11C18 11.5625 17.5312 12 17 12H16C15.5938 12.5625 15.0625 13 14.5 13.3438V14.5C14.5 15.3438 13.8125 16 13 16H11.5C10.6562 16 10 15.3438 10 14.5V14H8.5V14.5C8.5 15.3438 7.8125 16 7 16H5.5C4.65625 16 4 15.3438 4 14.5V13C2.8125 12.1562 2.0625 10.7812 2 9.25C0.84375 9.09375 0 8.125 0 6.96875C0 6.09375 0.46875 5.3125 1.25 4.90625L1.40625 4.84375C1.78125 4.65625 2.21875 4.8125 2.40625 5.1875C2.59375 5.5625 2.4375 6 2.0625 6.1875L1.9375 6.25C1.65625 6.40625 1.5 6.65625 1.5 6.96875C1.5 7.375 1.78125 7.6875 2.15625 7.75C2.71875 5.59375 4.65625 4 7 4ZM7 5.5C5.0625 5.5 3.5 7.09375 3.5 9C3.5 10.1562 4.03125 11.1875 4.875 11.8125C5.25 12.0938 5.5 12.5312 5.5 13V14.5H7V14C7 13.1875 7.65625 12.5 8.5 12.5H10C10.8125 12.5 11.5 13.1875 11.5 14V14.5H13V13.3438C13 12.8125 13.2812 12.3125 13.7188 12.0312C14.1562 11.8125 14.5 11.5 14.7812 11.125C15.0625 10.75 15.5 10.5 16 10.5H16.5V8.5C15.9375 8.46875 15.4062 8.125 15.1875 7.625C14.9375 7.0625 14.5625 6.5625 14.0938 6.21875C13.5938 5.84375 13.375 5.25 13.5312 4.65625L13.5625 4.59375C13.2812 4.65625 13.0625 4.8125 12.875 5C12.5938 5.34375 12.1875 5.5 11.75 5.5H7Z" fill="#02051F"/>
</svg>
