<svg width="18" height="17" viewBox="0 0 18 17" fill="none" xmlns="http://www.w3.org/2000/svg">
    <path d="M16.75 3.25L14.75 1.25C14.4375 0.9375 13.9688 0.9375 13.6875 1.25C13.375 1.53125 13.375 2 13.6875 2.28125L14.1875 2.75L13 3.96875L11.25 2.25C10.9688 1.9375 10.5 1.9375 10.2188 2.25C9.9375 2.5 9.9375 2.90625 10.125 3.1875L3.21875 10.125C3.0625 10.2812 3 10.4688 3 10.6562V13.9688L1.21875 15.75C0.90625 16.0312 0.90625 16.5 1.21875 16.8125C1.34375 16.9375 1.53125 17 1.75 17C1.9375 17 2.125 16.9375 2.25 16.7812L4.03125 15H7.34375C7.53125 15 7.71875 14.9375 7.875 14.7812L14.8125 7.875C14.9375 7.96875 15.0938 8 15.25 8C15.4375 8 15.625 7.9375 15.75 7.78125C16.0625 7.5 16.0625 7.03125 15.75 6.75L14.0312 5L15.25 3.8125L15.7188 4.28125C15.8438 4.4375 16.0312 4.5 16.25 4.5C16.4375 4.5 16.625 4.4375 16.75 4.28125C17.0625 4 17.0625 3.53125 16.75 3.25ZM7.03125 13.5H4.5V10.9688L5.375 10.0938L6.125 10.875C6.21875 10.9688 6.34375 11 6.5 11C6.625 11 6.75 10.9688 6.84375 10.875C7.03125 10.6875 7.03125 10.3438 6.84375 10.1562L6.0625 9.40625L7.375 8.09375L8.125 8.875C8.21875 8.96875 8.34375 9 8.5 9C8.625 9 8.75 8.96875 8.84375 8.875C9.03125 8.6875 9.03125 8.34375 8.84375 8.15625L8.0625 7.40625L9.375 6.09375L10.125 6.875C10.2188 6.96875 10.3438 7 10.5 7C10.625 7 10.75 6.96875 10.8438 6.875C11.0312 6.6875 11.0312 6.34375 10.8438 6.15625L10.0625 5.40625L11.1875 4.28125L13.7188 6.8125L7.03125 13.5Z" fill="#02051F"/>
</svg>
