<svg width="16" height="16" viewBox="0 0 16 16" fill="none" xmlns="http://www.w3.org/2000/svg">
    <path d="M8 11.5C8.8125 11.5 9.5 12.1875 9.5 13C9.5 13.8438 8.8125 14.5 8 14.5C7.15625 14.5 6.5 13.8438 6.5 13C6.5 12.1875 7.15625 11.5 8 11.5ZM8 6.5C8.8125 6.5 9.5 7.1875 9.5 8C9.5 8.84375 8.8125 9.5 8 9.5C7.15625 9.5 6.5 8.84375 6.5 8C6.5 7.1875 7.15625 6.5 8 6.5ZM8 4.5C7.15625 4.5 6.5 3.84375 6.5 3C6.5 2.1875 7.15625 1.5 8 1.5C8.8125 1.5 9.5 2.1875 9.5 3C9.5 3.84375 8.8125 4.5 8 4.5Z" fill="#02051F"/>
</svg>
