<svg width="20" height="16" viewBox="0 0 20 16" fill="none" xmlns="http://www.w3.org/2000/svg">
    <path d="M3.5 2C3.5 1.75 3.71875 1.5 4 1.5H14C14.25 1.5 14.5 1.75 14.5 2V3H16V2C16 0.90625 15.0938 0 14 0H4C2.875 0 2 0.90625 2 2V10H0.5C0.21875 10 0 10.25 0 10.5C0 11.3438 0.65625 12 1.5 12H11V10H3.5V2ZM18 4H14C12.875 4 12 4.90625 12 6V14C12 15.125 12.875 16 14 16H18C19.0938 16 20 15.125 20 14V6C20 4.90625 19.0938 4 18 4ZM18.5 14C18.5 14.2812 18.25 14.5 18 14.5H14C13.7188 14.5 13.5 14.2812 13.5 14V6C13.5 5.75 13.7188 5.5 14 5.5H18C18.25 5.5 18.5 5.75 18.5 6V14Z" fill="#02051F"/>
</svg>
