<svg xmlns="http://www.w3.org/2000/svg" width="60" height="48" fill="none">
    <path
            fill="#26221E"
            d="M59.25 12H48.281C44.25 8.156 39 6.094 33.47 6.094L32.625 6c-.938 0-1.781.375-2.531 1.031l-9.188 8.438-.093.094c-1.782 1.687-1.782 4.406-.188 6.28.75.75 2.063 1.407 3.469 1.407.937 0 1.875-.281 2.812-1.031l7.594-7.032c.281-.187.375-.75.094-1.03-.282-.282-.75-.282-1.125 0-8.25 7.5-7.219 6.562-7.782 7.03-1.593 1.22-3.375.282-3.937-.375-1.125-1.218-1.031-3.093.188-4.218l9.187-8.438c.469-.375.938-.656 1.5-.656h.844c5.25 0 10.218 2.063 13.968 5.813l.188.187h2.625V33h-.938a.74.74 0 0 0-.75.75c0 .469.282.75.75.75h1.032c.375 1.688 1.781 3 3.656 3h5.25a.74.74 0 0 0 .75-.75v-24c0-.375-.375-.75-.75-.75Zm-.75 24-4.5.094c-1.313-.094-2.25-1.032-2.25-2.344V13.594l6.75-.094V36ZM31.781 20.625c-.281-.281-.75-.281-1.031.094-.281.281-.188.75.094 1.031l13.968 11.344c1.032.843 1.126 2.25.376 3.187l-.938 1.125c-.75.938-2.156 1.125-3.094.282l-1.125-.844-3.375 4.218c-.468.563-1.125.844-1.875.938-.75.094-1.406-.094-1.968-.563l-2.344-1.78-.469.468c-.844 1.031-2.156 1.781-3.563 1.875-1.312.188-2.718-.281-3.75-1.125L13.97 33H9.75V13.5l2.531-.094.188-.187C16.219 9.563 21.188 7.5 26.438 7.5a.74.74 0 0 0 .75-.75c0-.375-.375-.75-.75-.75-5.532 0-10.782 2.156-14.813 6H.75a.74.74 0 0 0-.75.75v24c0 .469.281.75.75.75H6c1.781 0 3.188-1.313 3.563-3h3.843l8.25 7.5c1.219 1.031 2.719 1.5 4.313 1.5h.656c1.594-.188 3-.844 4.031-1.875l1.125.938c.938.75 1.969 1.03 3.094.937 1.125-.094 2.156-.656 2.906-1.5l2.438-3.094c1.593 1.313 3.937 1.032 5.25-.562l.843-1.125c1.313-1.594 1.032-3.938-.562-5.25L31.781 20.625ZM8.25 33.75C8.25 35.063 7.219 36 6 36H1.5V13.5l6.75.094V33.75Z"/>
</svg>