<svg xmlns="http://www.w3.org/2000/svg" width="48" height="48" fill="none">
    <path fill="#26221E"
          d="M41.719 6.281a.736.736 0 0 0-1.032 0l-34.5 34.5a.736.736 0 0 0 0 1.032c.094.187.282.187.563.187.188 0 .375 0 .469-.188l34.5-34.5a.736.736 0 0 0 0-1.03ZM12 18c3.281 0 6-2.625 6-6 0-3.281-2.719-5.906-6-5.906-3.375 0-6 2.625-6 5.906 0 3.375 2.625 6 6 6Zm0-10.5c2.438 0 4.5 2.063 4.5 4.5 0 2.531-2.063 4.5-4.5 4.5-2.531 0-4.5-1.969-4.5-4.5 0-2.438 1.969-4.5 4.5-4.5ZM36 30c-3.375 0-6 2.719-6 6 0 3.375 2.625 6 6 6 3.281 0 6-2.625 6-6 0-3.281-2.719-6-6-6Zm0 10.5c-2.531 0-4.5-1.969-4.5-4.5 0-2.438 1.969-4.5 4.5-4.5 2.438 0 4.5 2.063 4.5 4.5 0 2.531-2.063 4.5-4.5 4.5Z"/>
</svg>