<svg xmlns="http://www.w3.org/2000/svg" width="54" height="48" fill="none">
    <path
            fill="#26221E"
            d="M15.75 11.25c-.469 0-.75-.281-.75-.75C15 4.781 19.688 0 25.5 0c5.25 0 9.563 3.938 10.313 8.906.093.469-.188.844-.657.844-.375.094-.75-.188-.843-.563C33.656 4.875 29.905 1.5 25.5 1.5c-5.063 0-9 4.031-9 9a.74.74 0 0 1-.75.75ZM36 24c0-1.594 1.313-3 3-3 1.594 0 3 1.406 3 3 0 1.688-1.406 3-3 3-1.688 0-3-1.313-3-3Zm3 1.5c.75 0 1.5-.656 1.5-1.5 0-.75-.75-1.5-1.5-1.5-.844 0-1.5.75-1.5 1.5 0 .844.656 1.5 1.5 1.5ZM19.5 48h-3c-2.531 0-4.5-1.969-4.5-4.5V39c-3.656-2.719-6-7.031-6-12H4.875A4.842 4.842 0 0 1 0 22.125C0 19.5 2.156 17.25 4.875 17.25h.375c.375 0 .75.375.75.75a.74.74 0 0 1-.75.75h-.375C3 18.75 1.5 20.344 1.5 22.125 1.5 24 3 25.5 4.875 25.5H6C6.75 18 13.219 12 21 12h14.25c1.688-1.781 4.031-3 6.75-3h1.594c1.406 0 2.531 1.406 2.156 2.813L45 15c1.969 1.594 3.656 3.656 4.688 6H51c1.594 0 3 1.406 3 3v9c0 1.688-1.406 3-3 3h-3c-1.594 2.063-3.656 3.75-6 4.781V43.5c0 2.531-2.063 4.5-4.5 4.5h-3c-2.531 0-4.5-1.969-4.5-4.5V42h-6v1.5c0 2.531-2.063 4.5-4.5 4.5Zm16.406-34.5H21c-7.5 0-13.5 6.094-13.5 13.5 0 4.5 2.063 8.344 5.344 10.875l.656.375v5.25c0 1.688 1.313 3 3 3h3c1.594 0 3-1.313 3-3V42h-.75c-.469 0-.75-.281-.75-.75a.74.74 0 0 1 .75-.75h10.5c.375 0 .75.375.75.75a.74.74 0 0 1-.75.75h-.75v1.5c0 1.688 1.313 3 3 3h3c1.594 0 3-1.313 3-3v-3.656l.844-.469c2.156-.938 4.031-2.344 5.437-4.219l.469-.656H51c.75 0 1.5-.656 1.5-1.5v-9c0-.75-.75-1.5-1.5-1.5h-2.25l-.375-.844a13.597 13.597 0 0 0-4.313-5.437l-.843-.563 1.125-4.219c.093-.468-.282-.937-.75-.937H42c-2.25 0-4.219 1.031-5.625 2.531l-.469.469Z"/>
</svg>