<svg xmlns="http://www.w3.org/2000/svg" width="60" height="48" fill="none">
    <path
            fill="#26221E"
            d="M21 19.5c-2.531 0-4.5 2.063-4.5 4.5 0 2.531 1.969 4.5 4.5 4.5 2.438 0 4.5-1.969 4.5-4.5 0-2.438-2.063-4.5-4.5-4.5Zm0 7.5c-1.688 0-3-1.313-3-3 0-1.594 1.313-3 3-3 1.594 0 3 1.406 3 3 0 1.688-1.406 3-3 3ZM3.75 19.5H6a.74.74 0 0 0 .75-.75c0-.375-.375-.75-.75-.75H3.75C1.594 18 0 19.688 0 21.75v13.5C0 37.406 1.594 39 3.75 39H6a.74.74 0 0 0 .75-.75c0-.375-.375-.75-.844-.75H3.75c-1.313 0-2.25-.938-2.25-2.25v-13.5c0-1.219.938-2.25 2.25-2.25Zm35.25 0c-2.531 0-4.5 2.063-4.5 4.5 0 2.531 1.969 4.5 4.5 4.5 2.438 0 4.5-1.969 4.5-4.5 0-2.438-2.063-4.5-4.5-4.5Zm0 7.5c-1.688 0-3-1.313-3-3 0-1.594 1.313-3 3-3 1.594 0 3 1.406 3 3 0 1.688-1.406 3-3 3Zm3-18H30.75V.75c0-.375-.375-.75-.75-.75a.74.74 0 0 0-.75.75V9H18c-5.063 0-9 4.031-9 9v21c0 5.063 3.938 9 9 9h24c4.969 0 9-3.938 9-9V18c0-4.969-4.031-9-9-9Zm7.5 28.5h-3.75a.74.74 0 0 0-.75.75c0 .469.281.75.75.75h3.75c0 4.219-3.375 7.5-7.5 7.5H18c-4.219 0-7.5-3.281-7.5-7.5h3.75a.74.74 0 0 0 .75-.75c0-.375-.375-.75-.75-.75H10.5V18c0-4.125 3.281-7.5 7.5-7.5h24c4.125 0 7.5 3.375 7.5 7.5v19.5ZM56.25 18H54a.74.74 0 0 0-.75.75c0 .469.281.75.75.75h2.25c1.219 0 2.25 1.031 2.25 2.25v13.5c0 1.313-1.031 2.25-2.25 2.25H54c-.469 0-.75.281-.75.75 0 .375.281.75.75.75h2.25c2.063 0 3.75-1.594 3.75-3.75v-13.5A3.761 3.761 0 0 0 56.25 18Zm-33 19.5h-4.5a.74.74 0 0 0-.75.75c0 .469.281.75.75.75h4.5a.74.74 0 0 0 .75-.75c0-.375-.375-.75-.75-.75Zm9 0h-4.5a.74.74 0 0 0-.75.75c0 .469.281.75.75.75h4.5a.74.74 0 0 0 .75-.75c0-.375-.375-.75-.75-.75Zm9 0h-4.5a.74.74 0 0 0-.75.75c0 .469.281.75.75.75h4.5a.74.74 0 0 0 .75-.75c0-.375-.375-.75-.75-.75Z"/>
</svg>