<svg xmlns="http://www.w3.org/2000/svg" width="48" height="48" fill="none">
    <path fill="#26221E"
          d="m43.688 7.875-18-7.5C25.218.187 24.468.094 24 .094c-.563 0-1.313.093-1.781.281l-18 7.5C2.53 8.625 1.5 10.219 1.5 12c0 24.188 17.719 36 22.406 36C28.781 48 46.5 36 46.5 12c0-1.781-1.125-3.375-2.813-4.125ZM23.905 46.5C19.875 46.5 3 35.062 3 12c0-1.219.656-2.344 1.781-2.813l17.907-7.406c.375-.093.937-.281 1.312-.281.281 0 .844.188 1.125.281l18 7.5C44.25 9.75 45 10.781 45 12c0 26.063-19.688 34.5-21.094 34.5Zm9.844-30c-.281 0-.469 0-.563.188L21 29.718l-6.188-6.937c-.187-.187-.374-.281-.562-.281-.469 0-.75.281-.75.75 0 .188 0 .281.188.469l6.75 7.5c.093.187.375.187.562.281a.516.516 0 0 0 .469-.281l12.75-13.5a.516.516 0 0 0 .281-.469c0-.469-.469-.75-.75-.75Z"/>
</svg>