<svg xmlns="http://www.w3.org/2000/svg" width="48" height="48" fill="none">
    <path
            fill="#26221E"
            d="M29.906 2.344A21.41 21.41 0 0 0 24 1.5C11.531 1.5 1.5 11.625 1.5 24A22.446 22.446 0 0 0 24 46.5c12.375 0 22.5-10.031 22.5-22.5 0-1.969-.281-4.031-.844-5.906l1.219-1.219C47.531 19.125 48 21.563 48 24c0 13.313-10.781 24-24 24C10.687 48 0 37.312 0 24 0 10.781 10.688 0 24 0c2.438 0 4.781.469 7.031 1.125l-1.125 1.219Zm9.563 19.218c.187.844.281 1.688.281 2.438 0 8.719-7.125 15.75-15.75 15.75A15.724 15.724 0 0 1 8.25 24c0-8.625 7.031-15.75 15.75-15.75.75 0 1.594.094 2.438.281 0 .375 0 .75.093 1.125v.375A11.639 11.639 0 0 0 24 9.75C16.125 9.75 9.75 16.219 9.75 24c0 7.875 6.375 14.25 14.25 14.25 7.781 0 14.25-6.375 14.25-14.25 0-.844-.094-1.688-.281-2.531h.375c.375.093.75.093 1.125.093ZM24 17.25c.375 0 .844.094 1.313.188l-1.407 1.312C21 18.844 18.75 21.188 18.75 24A5.241 5.241 0 0 0 24 29.25a5.141 5.141 0 0 0 5.156-5.156l1.407-1.407c.093.47.187.938.187 1.313 0 3.75-3.094 6.75-6.75 6.75-3.75 0-6.75-3-6.75-6.75 0-3.656 3-6.75 6.75-6.75Zm.469 7.313a.736.736 0 0 1-1.032 0 .736.736 0 0 1 0-1.032l7.22-7.218-1.22-7.125c-.187-1.22.188-2.438 1.032-3.282L35.25 1.22c.844-.844 2.25-.469 2.531.656l1.782 6.563 6.562 1.78c1.125.282 1.5 1.688.656 2.532l-4.687 4.688c-.844.937-2.063 1.312-3.282 1.125l-7.124-1.22-7.22 7.22ZM36.28 2.25l-4.687 4.781c-.563.469-.75 1.219-.657 1.875L31.97 15l6.187-6.188-1.875-6.562Zm2.813 14.813c.656.093 1.406-.094 1.875-.657l4.781-4.687-6.563-1.875L33 16.03l6.094 1.032Z"/>
</svg>