<svg xmlns="http://www.w3.org/2000/svg" width="80" height="80" fill="none" viewBox="0 0 80 80">
    <path fill="#B89A7C"
          d="m41.25 34.219 5.5 5.25c.156.156.25.343.25.562 0 .188-.094.375-.25.532l-5.5 5.25a.746.746 0 0 1-1.063-.032.746.746 0 0 1 .032-1.062l4.156-3.938H33.75a.74.74 0 0 1-.75-.75c0-.437.313-.75.75-.75h10.625l-4.156-3.968a.746.746 0 0 1-.032-1.063c.282-.313.75-.313 1.063-.031Z"/>
    <rect width="78.5" height="78.5" x=".75" y=".75" stroke="#B89A7C" stroke-width="1.5" rx="39.25"/>
</svg>
