<svg xmlns="http://www.w3.org/2000/svg" width="80" height="80" fill="none" viewBox="0 0 80 80">
    <path fill="#B89A7C"
          d="M46.969 40c0 .438-.344.781-.75.781H35.594l4.156 3.938a.746.746 0 0 1 .031 1.062c-.281.313-.75.313-1.062.032l-5.5-5.25A.753.753 0 0 1 33 40c0-.188.063-.375.219-.531l5.5-5.25c.312-.282.781-.282 1.062.031a.746.746 0 0 1-.031 1.063l-4.156 3.937h10.625a.74.74 0 0 1 .75.75Z"/>
    <rect width="78.5" height="78.5" x=".75" y=".75" stroke="#B89A7C" stroke-width="1.5" rx="39.25"/>
</svg>
