<svg width="32" height="32" viewBox="0 0 32 32" fill="none" xmlns="http://www.w3.org/2000/svg">
    <g clip-path="url(#clip0_1054_14519)">
        <path d="M27.5486 25.8352C14.595 31.9999 6.5559 26.842 1.40981 23.7092C1.09137 23.5118 0.550136 23.7554 1.01973 24.2948C2.73415 26.3736 8.35267 31.384 15.6865 31.384C23.0253 31.384 27.3912 27.3796 27.9374 26.681C28.4799 25.9884 28.0967 25.6063 27.5484 25.8352H27.5486ZM31.1865 23.8261C30.8387 23.3731 29.0713 23.2886 27.9591 23.4253C26.8451 23.558 25.173 24.2388 25.3184 24.6476C25.393 24.8007 25.5452 24.732 26.3105 24.6632C27.0779 24.5866 29.2275 24.3153 29.6755 24.9009C30.1255 25.4905 28.9898 28.2992 28.7824 28.7522C28.582 29.2052 28.859 29.322 29.2354 29.0203C29.6066 28.7187 30.2787 27.9377 30.7297 26.8324C31.1777 25.7212 31.4508 24.171 31.1864 23.8261H31.1865Z" fill="#FF9900"/>
        <path fill-rule="evenodd" clip-rule="evenodd" d="M18.8386 13.256C18.8386 14.8735 18.8794 16.2225 18.0619 17.659C17.402 18.827 16.3567 19.5452 15.1888 19.5452C13.5945 19.5452 12.666 18.3306 12.666 16.5378C12.666 12.999 15.8369 12.3567 18.8386 12.3567V13.256ZM23.0255 23.3761C22.751 23.6213 22.3539 23.6389 22.0445 23.4753C20.6664 22.3308 20.421 21.7994 19.6619 20.7073C17.3845 23.0315 15.7727 23.7264 12.8179 23.7264C9.3258 23.7264 6.60449 21.5716 6.60449 17.2561C6.60449 13.8867 8.4324 11.5917 11.0309 10.4705C13.285 9.47768 16.4326 9.30252 18.8386 9.02815V8.49086C18.8386 7.50391 18.9144 6.33602 18.3364 5.48348C17.8282 4.71847 16.8589 4.40311 16.0062 4.40311C14.4238 4.40311 13.0105 5.21478 12.666 6.89658C12.5959 7.27041 12.3215 7.63833 11.9478 7.65581L7.91837 7.22375C7.57975 7.14768 7.20604 6.87331 7.29947 6.3535C8.22795 1.47168 12.6367 0 16.5843 0C18.6048 0 21.2443 0.537295 22.8386 2.06732C24.8591 3.95346 24.6663 6.47031 24.6663 9.2091V15.6794C24.6663 17.624 25.4722 18.4765 26.2313 19.5277C26.4999 19.9014 26.5584 20.3512 26.2196 20.6314C25.3729 21.3379 23.8662 22.6519 23.0371 23.3878L23.0254 23.3761" fill="black"/>
        <path d="M27.5486 25.8352C14.595 31.9999 6.5559 26.842 1.40981 23.7092C1.09137 23.5118 0.550136 23.7554 1.01973 24.2948C2.73415 26.3736 8.35267 31.384 15.6865 31.384C23.0253 31.384 27.3912 27.3796 27.9374 26.681C28.4799 25.9884 28.0967 25.6063 27.5484 25.8352H27.5486ZM31.1865 23.8261C30.8387 23.3731 29.0713 23.2886 27.9591 23.4253C26.8451 23.558 25.173 24.2388 25.3184 24.6476C25.393 24.8007 25.5452 24.732 26.3105 24.6632C27.0779 24.5866 29.2275 24.3153 29.6755 24.9009C30.1255 25.4905 28.9898 28.2992 28.7824 28.7522C28.582 29.2052 28.859 29.322 29.2354 29.0203C29.6066 28.7187 30.2787 27.9377 30.7297 26.8324C31.1777 25.7212 31.4508 24.171 31.1864 23.8261H31.1865Z" fill="#FF9900"/>
        <path fill-rule="evenodd" clip-rule="evenodd" d="M18.8386 13.256C18.8386 14.8735 18.8794 16.2225 18.0619 17.659C17.402 18.827 16.3567 19.5452 15.1888 19.5452C13.5945 19.5452 12.666 18.3306 12.666 16.5378C12.666 12.999 15.8369 12.3567 18.8386 12.3567V13.256ZM23.0255 23.3761C22.751 23.6213 22.3539 23.6389 22.0445 23.4753C20.6664 22.3308 20.421 21.7994 19.6619 20.7073C17.3845 23.0315 15.7727 23.7264 12.8179 23.7264C9.3258 23.7264 6.60449 21.5716 6.60449 17.2561C6.60449 13.8867 8.4324 11.5917 11.0309 10.4705C13.285 9.47768 16.4326 9.30252 18.8386 9.02815V8.49086C18.8386 7.50391 18.9144 6.33602 18.3364 5.48348C17.8282 4.71847 16.8589 4.40311 16.0062 4.40311C14.4238 4.40311 13.0105 5.21478 12.666 6.89658C12.5959 7.27041 12.3215 7.63833 11.9478 7.65581L7.91837 7.22375C7.57975 7.14768 7.20604 6.87331 7.29947 6.3535C8.22795 1.47168 12.6367 0 16.5843 0C18.6048 0 21.2443 0.537295 22.8386 2.06732C24.8591 3.95346 24.6663 6.47031 24.6663 9.2091V15.6794C24.6663 17.624 25.4722 18.4765 26.2313 19.5277C26.4999 19.9014 26.5584 20.3512 26.2196 20.6314C25.3729 21.3379 23.8662 22.6519 23.0371 23.3878L23.0254 23.3761" fill="black"/>
    </g>
    <defs>
        <clipPath id="clip0_1054_14519">
            <rect width="32" height="32" fill="white"/>
        </clipPath>
    </defs>
</svg>
