<svg width="32" height="32" viewBox="0 0 32 32" fill="none" xmlns="http://www.w3.org/2000/svg">
    <path d="M30.08 16.3334C30.08 15.2934 29.9867 14.2934 29.8133 13.3334H16V19.0134H23.8933C23.5467 20.84 22.5067 22.3867 20.9467 23.4267V27.12H25.7067C28.48 24.56 30.08 20.8 30.08 16.3334Z" fill="#4285F4"/>
    <path d="M15.9996 30.6667C19.9596 30.6667 23.2796 29.36 25.7063 27.12L20.9463 23.4267C19.6396 24.3067 17.9729 24.84 15.9996 24.84C12.1862 24.84 8.94625 22.2667 7.78625 18.8H2.90625V22.5867C5.31958 27.3734 10.2662 30.6667 15.9996 30.6667Z" fill="#34A853"/>
    <path d="M7.78634 18.7866C7.49301 17.9066 7.31967 16.9733 7.31967 16C7.31967 15.0266 7.49301 14.0933 7.78634 13.2133V9.42664H2.90634C1.90634 11.4 1.33301 13.6266 1.33301 16C1.33301 18.3733 1.90634 20.6 2.90634 22.5733L6.70634 19.6133L7.78634 18.7866Z" fill="#FBBC05"/>
    <path d="M15.9996 7.17337C18.1596 7.17337 20.0796 7.92004 21.6129 9.36004L25.8129 5.16004C23.2663 2.78671 19.9596 1.33337 15.9996 1.33337C10.2662 1.33337 5.31958 4.62671 2.90625 9.42671L7.78625 13.2134C8.94625 9.74671 12.1862 7.17337 15.9996 7.17337Z" fill="#EA4335"/>
</svg>
