<svg width="32" height="32" viewBox="0 0 32 32" fill="none" xmlns="http://www.w3.org/2000/svg">
    <path d="M16.0016 32L20.4783 6.71462C24.7455 6.71462 26.0914 7.18455 26.2857 9.10263C26.2857 9.10263 29.1483 8.03073 30.592 5.85374C24.9581 3.23191 19.2973 3.11367 19.2973 3.11367L15.9941 7.15413L16.0016 7.15362L12.6984 3.11304C12.6984 3.11304 7.03746 3.2314 1.4043 5.85323C2.84679 8.03023 5.71044 9.10212 5.71044 9.10212C5.90591 7.18391 7.25022 6.71399 11.4887 6.71095L16.0016 32Z" fill="#E82127"/>
    <path d="M16 1.9466C20.5542 1.91162 25.767 2.65414 31.1034 4.98993C31.8166 3.70069 32 3.13091 32 3.13091C26.1666 0.813111 20.7036 0.0198969 15.9994 0C11.2953 0.0198969 5.83267 0.813237 0 3.13091C0 3.13091 0.260205 3.83275 0.895955 4.98993C6.23131 2.65414 11.445 1.91162 15.9994 1.9466H16Z" fill="#E82127"/>
</svg>
