<svg xmlns="http://www.w3.org/2000/svg" width="48" height="48" fill="none">
    <path
            fill="#31235C"
            d="M21.656 38.156c-.375-.093-.843 0-1.031.469l-3 7.5c-.188.375-.563.375-.656.375-.188.094-.563 0-.75-.375l-2.25-4.5c-.188-.281-.469-.469-.844-.375l-4.781.938a.81.81 0 0 1-.75-.188c-.094-.094-.188-.375-.094-.75l3-7.5c.094-.375-.094-.75-.469-.938-.375-.187-.844 0-.937.376l-3 7.5c-.282.75-.188 1.593.375 2.25.562.656 1.406.937 2.156.75l4.219-.844 2.062 3.937A2.187 2.187 0 0 0 16.875 48h.094c.937 0 1.687-.563 1.968-1.313l3.094-7.5c.188-.468 0-.843-.375-1.03Zm7.688-4.218c.656 0 1.312.093 1.875.093.656 0 1.218-.093 1.687-.375 1.313-.75 1.688-2.812 2.719-3.937 1.125-1.032 3.188-1.313 3.938-2.625.75-1.313 0-3.282.374-4.782.376-1.406 1.97-2.718 1.97-4.312 0-1.5-1.688-2.813-2.063-4.219-.375-1.5.375-3.469-.375-4.781-.75-1.313-2.813-1.594-3.844-2.625-1.125-1.125-1.406-3.188-2.719-3.938-.562-.28-1.125-.374-1.687-.374-.657 0-1.313.093-1.875.093-.469 0-.844 0-1.219-.094C26.812 1.688 25.5 0 24 0c-1.594 0-2.906 1.688-4.313 2.063-.375.093-.75.093-1.125.093-.656 0-1.312-.094-1.875-.094-.656 0-1.218.094-1.687.376-1.313.75-1.688 2.812-2.719 3.937C11.156 7.406 9.094 7.688 8.344 9c-.75 1.313 0 3.281-.375 4.781C7.594 15.187 6 16.5 6 18c0 1.594 1.594 2.906 1.969 4.313.375 1.5-.375 3.468.375 4.78.75 1.22 2.812 1.595 3.937 2.626 1.031 1.125 1.313 3.187 2.625 3.937.563.282 1.125.375 1.688.375.656 0 1.312-.093 1.968-.093.375 0 .75 0 1.125.093C21.095 34.406 22.407 36 24 36c1.5 0 2.813-1.594 4.219-1.969.375-.093.75-.093 1.125-.093Zm-3.75-.188c-.563.375-1.219.75-1.594.75-.469 0-1.125-.375-1.688-.75-.656-.469-1.406-.938-2.25-1.125-.468-.188-.937-.188-1.5-.188h-1.03c-.282 0-.657.094-.938.094-.375 0-.75-.093-.938-.187-.281-.188-.656-.844-.937-1.5-.375-.75-.75-1.5-1.406-2.157-.657-.656-1.407-1.03-2.157-1.406-.656-.281-1.312-.656-1.5-1.031-.187-.281-.187-1.031-.094-1.781 0-.75.094-1.688-.187-2.532-.188-.843-.656-1.593-1.125-2.25-.375-.562-.75-1.218-.75-1.687 0-.375.375-1.031.75-1.594.469-.656.938-1.406 1.125-2.25.281-.844.188-1.781.188-2.531-.094-.75-.094-1.5.093-1.875.188-.375.844-.75 1.5-1.031.75-.281 1.5-.656 2.156-1.313C13.97 6.75 14.345 6 14.72 5.25c.281-.656.656-1.313 1.031-1.5.094-.094.469-.188.844-.188.281 0 .656.094.937.094h1.032c.562 0 1.03 0 1.5-.187.843-.188 1.593-.656 2.25-1.125C22.875 1.969 23.53 1.5 24 1.5c.375 0 1.031.469 1.594.844.656.469 1.406.937 2.25 1.125.468.187.937.187 1.5.187h1.031c.281 0 .656-.094.938-.094.375 0 .75.094.937.188.281.188.656.844.938 1.5.374.75.75 1.5 1.406 2.156.656.657 1.406 1.032 2.156 1.407.656.28 1.313.656 1.5 1.03.188.282.188 1.032.094 1.782 0 .75-.094 1.688.187 2.531.188.844.657 1.594 1.125 2.25.375.563.844 1.219.844 1.594 0 .469-.469 1.125-.844 1.688-.468.656-.937 1.406-1.125 2.25-.281.843-.187 1.78-.187 2.53.093.75.093 1.5-.094 1.876-.188.281-.844.656-1.5.937-.75.375-1.5.75-2.156 1.407-.657.656-1.032 1.406-1.407 2.156-.28.656-.656 1.312-1.03 1.5-.094.093-.47.187-.844.187-.282 0-.657-.093-.938-.093h-1.031c-.563 0-1.032 0-1.5.187-.844.188-1.594.656-2.25 1.125ZM32.156 18c0-4.5-3.75-8.25-8.156-8.25-4.5 0-8.25 3.75-8.25 8.25 0 4.594 3.656 8.25 8.156 8.25 4.407 0 8.25-3.656 8.25-8.25ZM24 24.75c-3.75 0-6.75-3-6.75-6.75 0-3.656 3-6.75 6.75-6.75 3.656 0 6.75 3.094 6.75 6.75 0 3.75-3.094 6.75-6.75 6.75Zm14.813 8.438c-.094-.376-.563-.563-.938-.376-.375.188-.563.563-.469.938l3 7.5a.636.636 0 0 1-.093.75.81.81 0 0 1-.75.188l-4.782-.938c-.375-.094-.656.094-.843.375l-2.25 4.5c-.188.375-.563.375-.75.375-.094 0-.47 0-.657-.375l-3-7.5c-.187-.375-.656-.563-1.031-.469-.375.188-.563.657-.375 1.032l3.094 7.5C29.25 47.438 30 48 30.937 48h.094c.844 0 1.594-.375 1.969-1.219l2.063-3.937 4.218.843c.75.188 1.594-.093 2.157-.75.562-.656.656-1.5.374-2.25l-3-7.5Z"/>
</svg>
