<svg width="42" height="42" viewBox="0 0 42 42" fill="none" xmlns="http://www.w3.org/2000/svg">
<path d="M8.25 0C10.3125 0 12 1.6875 12 3.75V8.25C12 10.4062 10.3125 12 8.25 12H3.75C1.59375 12 0 10.4062 0 8.25V3.75C0 1.6875 1.59375 0 3.75 0H8.25ZM8.25 1.5H3.75C2.4375 1.5 1.5 2.53125 1.5 3.75V8.25C1.5 9.5625 2.4375 10.5 3.75 10.5H8.25C9.46875 10.5 10.5 9.5625 10.5 8.25V3.75C10.5 2.53125 9.46875 1.5 8.25 1.5ZM8.25 15C10.3125 15 12 16.6875 12 18.75V23.25C12 25.4062 10.3125 27 8.25 27H3.75C1.59375 27 0 25.4062 0 23.25V18.75C0 16.6875 1.59375 15 3.75 15H8.25ZM8.25 16.5H3.75C2.4375 16.5 1.5 17.5312 1.5 18.75V23.25C1.5 24.5625 2.4375 25.5 3.75 25.5H8.25C9.46875 25.5 10.5 24.5625 10.5 23.25V18.75C10.5 17.5312 9.46875 16.5 8.25 16.5ZM0 33.75C0 31.6875 1.59375 30 3.75 30H8.25C10.3125 30 12 31.6875 12 33.75V38.25C12 40.4062 10.3125 42 8.25 42H3.75C1.59375 42 0 40.4062 0 38.25V33.75ZM1.5 33.75V38.25C1.5 39.5625 2.4375 40.5 3.75 40.5H8.25C9.46875 40.5 10.5 39.5625 10.5 38.25V33.75C10.5 32.5312 9.46875 31.5 8.25 31.5H3.75C2.4375 31.5 1.5 32.5312 1.5 33.75ZM23.25 0C25.3125 0 27 1.6875 27 3.75V8.25C27 10.4062 25.3125 12 23.25 12H18.75C16.5938 12 15 10.4062 15 8.25V3.75C15 1.6875 16.5938 0 18.75 0H23.25ZM23.25 1.5H18.75C17.4375 1.5 16.5 2.53125 16.5 3.75V8.25C16.5 9.5625 17.4375 10.5 18.75 10.5H23.25C24.4688 10.5 25.5 9.5625 25.5 8.25V3.75C25.5 2.53125 24.4688 1.5 23.25 1.5ZM15 18.75C15 16.6875 16.5938 15 18.75 15H23.25C25.3125 15 27 16.6875 27 18.75V23.25C27 25.4062 25.3125 27 23.25 27H18.75C16.5938 27 15 25.4062 15 23.25V18.75ZM16.5 18.75V23.25C16.5 24.5625 17.4375 25.5 18.75 25.5H23.25C24.4688 25.5 25.5 24.5625 25.5 23.25V18.75C25.5 17.5312 24.4688 16.5 23.25 16.5H18.75C17.4375 16.5 16.5 17.5312 16.5 18.75ZM23.25 30C25.3125 30 27 31.6875 27 33.75V38.25C27 40.4062 25.3125 42 23.25 42H18.75C16.5938 42 15 40.4062 15 38.25V33.75C15 31.6875 16.5938 30 18.75 30H23.25ZM23.25 31.5H18.75C17.4375 31.5 16.5 32.5312 16.5 33.75V38.25C16.5 39.5625 17.4375 40.5 18.75 40.5H23.25C24.4688 40.5 25.5 39.5625 25.5 38.25V33.75C25.5 32.5312 24.4688 31.5 23.25 31.5ZM30 3.75C30 1.6875 31.5938 0 33.75 0H38.25C40.3125 0 42 1.6875 42 3.75V8.25C42 10.4062 40.3125 12 38.25 12H33.75C31.5938 12 30 10.4062 30 8.25V3.75ZM31.5 3.75V8.25C31.5 9.5625 32.4375 10.5 33.75 10.5H38.25C39.4688 10.5 40.5 9.5625 40.5 8.25V3.75C40.5 2.53125 39.4688 1.5 38.25 1.5H33.75C32.4375 1.5 31.5 2.53125 31.5 3.75ZM38.25 15C40.3125 15 42 16.6875 42 18.75V23.25C42 25.4062 40.3125 27 38.25 27H33.75C31.5938 27 30 25.4062 30 23.25V18.75C30 16.6875 31.5938 15 33.75 15H38.25ZM38.25 16.5H33.75C32.4375 16.5 31.5 17.5312 31.5 18.75V23.25C31.5 24.5625 32.4375 25.5 33.75 25.5H38.25C39.4688 25.5 40.5 24.5625 40.5 23.25V18.75C40.5 17.5312 39.4688 16.5 38.25 16.5ZM30 33.75C30 31.6875 31.5938 30 33.75 30H38.25C40.3125 30 42 31.6875 42 33.75V38.25C42 40.4062 40.3125 42 38.25 42H33.75C31.5938 42 30 40.4062 30 38.25V33.75ZM31.5 33.75V38.25C31.5 39.5625 32.4375 40.5 33.75 40.5H38.25C39.4688 40.5 40.5 39.5625 40.5 38.25V33.75C40.5 32.5312 39.4688 31.5 38.25 31.5H33.75C32.4375 31.5 31.5 32.5312 31.5 33.75Z" fill="#31235C"/>
</svg>
