<svg xmlns="http://www.w3.org/2000/svg" width="49" height="48" fill="none">
    <path
            fill="#31235C"
            d="M25.156 21.75V8.25a.74.74 0 0 0-.75-.75c-.375 0-.75.375-.75.75v13.5c0 .469.375.75.75.75.469 0 .75-.281.75-.75ZM23 27c0 .844.656 1.5 1.5 1.5.75 0 1.5-.75 1.5-1.5 0-.656-.75-1.5-1.5-1.5-.844 0-1.5.75-1.5 1.5ZM36.125 4.875C33.031 1.781 28.812 0 24.5 0l-.094.094C15.313.094 8 7.5 8 16.594c0 4.031 1.406 7.875 4.031 10.875 1.313 1.5 3.656 4.875 4.5 7.875.094.468.469.75.844.656.375 0 .656-.375.656-.75v-.281C17 31.78 14.47 28.03 13.156 26.53c-2.344-2.718-3.75-6.281-3.75-9.937 0-8.438 6.656-15 15-15.094h.094c3.938 0 7.688 1.594 10.5 4.406 2.813 2.907 4.406 6.657 4.406 10.688 0 3.656-1.312 7.218-3.75 9.937-1.312 1.5-3.843 5.157-4.875 8.625v.094a.9.9 0 0 0 .657.844h.093c.375 0 .657-.282.75-.657.938-3.093 3.282-6.468 4.5-7.968C39.5 24.469 41 20.625 41 16.594c0-4.407-1.781-8.625-4.875-11.719ZM30.406 39H18.5c-.844 0-1.5.656-1.5 1.5v2.063c0 .562.094 1.124.469 1.687l1.593 2.344c.47.843 1.594 1.406 2.532 1.406h5.718c.938 0 2.063-.563 2.532-1.313l1.593-2.343c.282-.469.47-1.219.47-1.688v-2.062c0-.844-.657-1.594-1.5-1.594Zm0 3.656c0 .188-.093.657-.187.844l-1.594 2.344c-.281.375-.938.75-1.313.75h-5.718c-.375 0-1.032-.375-1.219-.75L18.687 43.5c-.187-.281-.28-.563-.28-.844V40.5h11.905l.094 2.156Z"/>
</svg>
