<svg width="54" height="48" viewBox="0 0 54 48" fill="none" xmlns="http://www.w3.org/2000/svg">
<path d="M15.75 11.25C15.2812 11.25 15 10.9688 15 10.5C15 4.78125 19.6875 0 25.5 0C30.75 0 35.0625 3.9375 35.8125 8.90625C35.9062 9.375 35.625 9.75 35.1562 9.75C34.7812 9.84375 34.4062 9.5625 34.3125 9.1875C33.6562 4.875 29.9062 1.5 25.5 1.5C20.4375 1.5 16.5 5.53125 16.5 10.5C16.5 10.9688 16.125 11.25 15.75 11.25ZM36 24C36 22.4062 37.3125 21 39 21C40.5938 21 42 22.4062 42 24C42 25.6875 40.5938 27 39 27C37.3125 27 36 25.6875 36 24ZM39 25.5C39.75 25.5 40.5 24.8438 40.5 24C40.5 23.25 39.75 22.5 39 22.5C38.1562 22.5 37.5 23.25 37.5 24C37.5 24.8438 38.1562 25.5 39 25.5ZM19.5 48H16.5C13.9688 48 12 46.0312 12 43.5V39C8.34375 36.2812 6 31.9688 6 27H4.875C2.15625 27 0 24.8438 0 22.125C0 19.5 2.15625 17.25 4.875 17.25H5.25C5.625 17.25 6 17.625 6 18C6 18.4688 5.625 18.75 5.25 18.75H4.875C3 18.75 1.5 20.3438 1.5 22.125C1.5 24 3 25.5 4.875 25.5H6C6.75 18 13.2188 12 21 12H35.25C36.9375 10.2188 39.2812 9 42 9H43.5938C45 9 46.125 10.4062 45.75 11.8125L45 15C46.9688 16.5938 48.6562 18.6562 49.6875 21H51C52.5938 21 54 22.4062 54 24V33C54 34.6875 52.5938 36 51 36H48C46.4062 38.0625 44.3438 39.75 42 40.7812V43.5C42 46.0312 39.9375 48 37.5 48H34.5C31.9688 48 30 46.0312 30 43.5V42H24V43.5C24 46.0312 21.9375 48 19.5 48ZM35.9062 13.5H21C13.5 13.5 7.5 19.5938 7.5 27C7.5 31.5 9.5625 35.3438 12.8438 37.875L13.5 38.25V43.5C13.5 45.1875 14.8125 46.5 16.5 46.5H19.5C21.0938 46.5 22.5 45.1875 22.5 43.5V42H21.75C21.2812 42 21 41.7188 21 41.25C21 40.875 21.2812 40.5 21.75 40.5H32.25C32.625 40.5 33 40.875 33 41.25C33 41.7188 32.625 42 32.25 42H31.5V43.5C31.5 45.1875 32.8125 46.5 34.5 46.5H37.5C39.0938 46.5 40.5 45.1875 40.5 43.5V39.8438L41.3438 39.375C43.5 38.4375 45.375 37.0312 46.7812 35.1562L47.25 34.5H51C51.75 34.5 52.5 33.8438 52.5 33V24C52.5 23.25 51.75 22.5 51 22.5H48.75L48.375 21.6562C47.4375 19.5 45.9375 17.625 44.0625 16.2188L43.2188 15.6562L44.3438 11.4375C44.4375 10.9688 44.0625 10.5 43.5938 10.5H42C39.75 10.5 37.7812 11.5312 36.375 13.0312L35.9062 13.5Z" fill="#31235C"/>
</svg>
