<svg xmlns="http://www.w3.org/2000/svg" width="61" height="48" fill="none">
    <path
            fill="#31235C"
            d="M15.5 30c4.969 0 9-3.938 9-9 0-4.969-4.031-9-9-9-5.063 0-9 4.031-9 9s3.938 9 9 9Zm0-16.5c4.125 0 7.5 3.375 7.5 7.5 0 4.219-3.375 7.5-7.5 7.5-4.219 0-7.5-3.281-7.5-7.5 0-4.125 3.281-7.5 7.5-7.5ZM55.25 0h-34.5c-2.906 0-5.25 2.438-5.25 5.25v3c0 .469.281.75.75.75a.74.74 0 0 0 .75-.75v-3c0-2.063 1.594-3.75 3.75-3.75h34.5A3.761 3.761 0 0 1 59 5.25v28.5c0 2.156-1.688 3.75-3.75 3.75h-22.5a.74.74 0 0 0-.75.75c0 .469.281.75.75.75h22.5c2.813 0 5.25-2.344 5.25-5.25V5.25C60.5 2.437 58.062 0 55.25 0ZM18.5 33h-6c-6.656 0-12 5.438-12 12 0 1.688 1.313 3 3 3h24c1.594 0 3-1.313 3-3 0-6.563-5.438-12-12-12Zm9 13.5h-24A1.48 1.48 0 0 1 2 45c0-5.719 4.688-10.5 10.5-10.5h6C24.219 34.5 29 39.281 29 45c0 .844-.75 1.5-1.5 1.5Zm1.969-30.469a.736.736 0 0 0-1.032 0 .736.736 0 0 0 0 1.032l7.5 7.5c.094.187.282.187.563.187.188 0 .375 0 .469-.188L48.5 13.126v7.125c0 .469.281.75.75.75a.74.74 0 0 0 .75-.75v-9c0-.375-.375-.75-.75-.75h-9a.74.74 0 0 0-.75.75c0 .469.281.75.75.75h7.125L36.5 22.969l-7.031-6.938Z"/>
</svg>
