<svg xmlns="http://www.w3.org/2000/svg" width="48" height="48" fill="none">
    <path
            fill="#54428A"
            d="M31.219 38.813a.736.736 0 0 1-1.032 0L24 32.624l-6.281 6.188a.736.736 0 0 1-1.032 0 .736.736 0 0 1 0-1.032l6.188-6.281-6.188-6.188a.736.736 0 0 1 0-1.03.736.736 0 0 1 1.032 0L24 30.468l6.188-6.188a.736.736 0 0 1 1.03 0 .736.736 0 0 1 0 1.032L25.032 31.5l6.188 6.281a.736.736 0 0 1 0 1.032ZM14.25 0c.375 0 .75.375.75.75V6h18V.75a.74.74 0 0 1 .75-.75c.375 0 .75.375.75.75V6H39c3.281 0 6 2.719 6 6v30c0 3.375-2.719 6-6 6H9c-3.375 0-6-2.625-6-6V12c0-3.281 2.625-6 6-6h4.5V.75a.74.74 0 0 1 .75-.75ZM43.5 18h-39v24c0 2.531 1.969 4.5 4.5 4.5h30c2.438 0 4.5-1.969 4.5-4.5V18Zm-30-6.75V7.5H9c-2.531 0-4.5 2.063-4.5 4.5v4.5h39V12c0-2.438-2.063-4.5-4.5-4.5h-4.5v3.75a.74.74 0 0 1-.75.75c-.469 0-.75-.281-.75-.75V7.5H15v3.75a.74.74 0 0 1-.75.75c-.469 0-.75-.281-.75-.75Z"/>
</svg>
